<svg xmlns="http://www.w3.org/2000/svg" xmlns:xlink="http://www.w3.org/1999/xlink" width="1080" zoomAndPan="magnify" viewBox="0 0 810 809.999993" height="1080" preserveAspectRatio="xMidYMid meet" version="1.0"><defs><g/><clipPath id="d2b4d0fd86"><path d="M 227 371 L 308.152344 371 L 308.152344 439 L 227 439 Z M 227 371 " clip-rule="nonzero"/></clipPath><clipPath id="9cdd94f513"><path d="M 195 326.378906 L 264 326.378906 L 264 394 L 195 394 Z M 195 326.378906 " clip-rule="nonzero"/></clipPath><clipPath id="1ff5850675"><path d="M 150 326.378906 L 219 326.378906 L 219 394 L 150 394 Z M 150 326.378906 " clip-rule="nonzero"/></clipPath><clipPath id="f0265ebfeb"><path d="M 195 416 L 264 416 L 264 483.878906 L 195 483.878906 Z M 195 416 " clip-rule="nonzero"/></clipPath><clipPath id="7dcad9bcd4"><path d="M 150 416 L 219 416 L 219 483.878906 L 150 483.878906 Z M 150 416 " clip-rule="nonzero"/></clipPath><clipPath id="cf55ad2234"><path d="M 105.652344 371 L 176 371 L 176 439 L 105.652344 439 Z M 105.652344 371 " clip-rule="nonzero"/></clipPath></defs><g clip-path="url(#d2b4d0fd86)"><path fill="#a2caff" d="M 284.527344 405.015625 L 274.375 394.867188 L 264.21875 405.015625 L 274.375 415.160156 Z M 274.375 371.265625 C 274.96875 371.265625 275.5625 371.492188 276.015625 371.945312 L 307.46875 403.371094 C 307.90625 403.808594 308.148438 404.398438 308.148438 405.015625 C 308.148438 405.632812 307.90625 406.222656 307.46875 406.65625 L 276.015625 438.085938 C 275.109375 438.992188 273.636719 438.992188 272.730469 438.085938 L 251.925781 417.300781 L 251.6875 417.539062 C 250.777344 418.445312 249.308594 418.445312 248.398438 417.539062 C 247.492188 416.632812 247.492188 415.164062 248.398438 414.253906 L 272.730469 389.941406 C 273.636719 389.035156 275.109375 389.035156 276.015625 389.941406 L 289.457031 403.371094 C 289.894531 403.808594 290.136719 404.398438 290.136719 405.015625 C 290.136719 405.632812 289.894531 406.222656 289.457031 406.65625 L 276.015625 420.085938 C 275.109375 420.992188 273.636719 420.996094 272.730469 420.085938 L 260.933594 408.296875 L 255.210938 414.015625 L 274.375 433.160156 L 302.539062 405.015625 L 274.375 376.871094 L 231.128906 420.082031 C 230.222656 420.988281 228.753906 420.988281 227.84375 420.082031 C 226.9375 419.171875 226.9375 417.703125 227.84375 416.796875 L 272.730469 371.945312 C 273.183594 371.492188 273.777344 371.265625 274.375 371.265625 " fill-opacity="1" fill-rule="nonzero"/></g><g clip-path="url(#9cdd94f513)"><path fill="#a2caff" d="M 207.046875 366.828125 C 207.640625 366.828125 208.234375 367.054688 208.6875 367.511719 L 231.132812 389.9375 C 232.039062 390.84375 232.039062 392.3125 231.132812 393.21875 C 230.222656 394.128906 228.753906 394.128906 227.847656 393.21875 L 205.402344 370.792969 C 204.496094 369.886719 204.496094 368.417969 205.402344 367.511719 C 205.855469 367.054688 206.449219 366.828125 207.046875 366.828125 Z M 239.644531 360.148438 L 229.488281 350.003906 L 219.335938 360.148438 L 229.488281 370.296875 Z M 229.488281 344.394531 C 230.105469 344.394531 230.695312 344.640625 231.132812 345.078125 L 244.570312 358.507812 C 245.480469 359.414062 245.480469 360.886719 244.570312 361.792969 L 231.132812 375.222656 C 230.261719 376.09375 228.71875 376.09375 227.847656 375.222656 L 214.40625 361.792969 C 213.5 360.886719 213.5 359.414062 214.40625 358.507812 L 227.847656 345.078125 C 228.28125 344.640625 228.871094 344.394531 229.488281 344.394531 Z M 229.488281 326.398438 C 230.105469 326.398438 230.695312 326.640625 231.132812 327.078125 L 262.582031 358.507812 C 263.492188 359.414062 263.492188 360.886719 262.585938 361.792969 L 240.148438 384.214844 C 239.242188 385.121094 237.773438 385.121094 236.863281 384.214844 C 235.957031 383.308594 235.957031 381.835938 236.863281 380.929688 L 257.652344 360.148438 L 229.488281 332.003906 L 199.675781 361.792969 C 198.769531 362.699219 197.300781 362.699219 196.394531 361.792969 C 195.484375 360.886719 195.484375 359.414062 196.394531 358.507812 L 227.847656 327.078125 C 228.28125 326.640625 228.871094 326.398438 229.488281 326.398438 " fill-opacity="1" fill-rule="nonzero"/></g><path fill="#a2caff" d="M 207.035156 411.679688 C 207.628906 411.679688 208.226562 411.90625 208.679688 412.359375 L 231.132812 434.800781 C 232.042969 435.707031 232.042969 437.175781 231.132812 438.082031 C 230.226562 438.988281 228.753906 438.988281 227.847656 438.082031 L 205.394531 415.644531 C 204.484375 414.738281 204.484375 413.265625 205.394531 412.359375 C 205.847656 411.90625 206.441406 411.679688 207.035156 411.679688 Z M 260.945312 402.691406 C 261.539062 402.691406 262.132812 402.917969 262.589844 403.371094 C 263.496094 404.277344 263.496094 405.75 262.589844 406.65625 L 240.132812 429.09375 C 239.226562 430 237.753906 430 236.847656 429.09375 C 235.9375 428.183594 235.9375 426.714844 236.847656 425.808594 L 259.300781 403.371094 C 259.753906 402.917969 260.351562 402.691406 260.945312 402.691406 Z M 239.648438 405.011719 L 229.492188 394.867188 L 219.335938 405.011719 L 229.492188 415.160156 Z M 229.492188 389.261719 C 230.085938 389.261719 230.679688 389.488281 231.132812 389.941406 L 244.578125 403.371094 C 245.011719 403.804688 245.257812 404.398438 245.257812 405.011719 C 245.257812 405.628906 245.011719 406.21875 244.578125 406.65625 L 231.132812 420.085938 C 230.226562 420.992188 228.753906 420.992188 227.847656 420.085938 L 214.40625 406.652344 C 213.5 405.75 213.5 404.277344 214.40625 403.371094 L 227.847656 389.941406 C 228.300781 389.488281 228.894531 389.261719 229.492188 389.261719 Z M 220.496094 380.253906 C 221.089844 380.253906 221.683594 380.480469 222.136719 380.933594 C 223.046875 381.835938 223.046875 383.308594 222.136719 384.214844 L 199.683594 406.65625 C 198.773438 407.5625 197.304688 407.5625 196.394531 406.652344 C 195.488281 405.75 195.488281 404.277344 196.394531 403.371094 L 218.851562 380.933594 C 219.308594 380.480469 219.902344 380.253906 220.496094 380.253906 Z M 229.492188 371.261719 C 230.085938 371.261719 230.679688 371.488281 231.132812 371.941406 L 253.574219 394.363281 C 254.480469 395.269531 254.480469 396.738281 253.574219 397.644531 C 252.664062 398.554688 251.195312 398.554688 250.285156 397.644531 L 227.847656 375.226562 C 226.941406 374.320312 226.941406 372.847656 227.847656 371.941406 C 228.300781 371.488281 228.894531 371.261719 229.492188 371.261719 " fill-opacity="1" fill-rule="nonzero"/><path fill="#a2caff" d="M 229.492188 389.257812 C 230.085938 389.257812 230.679688 389.484375 231.132812 389.9375 C 232.042969 390.847656 232.042969 392.316406 231.132812 393.222656 L 208.699219 415.644531 C 207.789062 416.550781 206.320312 416.550781 205.410156 415.644531 C 204.503906 414.734375 204.503906 413.265625 205.410156 412.359375 L 227.847656 389.9375 C 228.300781 389.484375 228.894531 389.257812 229.492188 389.257812 Z M 217.207031 382.570312 L 207.054688 372.425781 L 196.898438 382.570312 L 207.054688 392.71875 Z M 207.054688 366.820312 C 207.648438 366.820312 208.242188 367.046875 208.699219 367.5 L 222.136719 380.929688 C 222.574219 381.367188 222.820312 381.957031 222.820312 382.570312 C 222.820312 383.1875 222.574219 383.777344 222.136719 384.214844 L 208.699219 397.644531 C 208.261719 398.082031 207.667969 398.324219 207.054688 398.324219 C 206.4375 398.324219 205.847656 398.082031 205.410156 397.644531 L 191.96875 384.214844 C 191.0625 383.308594 191.0625 381.835938 191.96875 380.929688 L 205.410156 367.5 C 205.863281 367.046875 206.460938 366.820312 207.054688 366.820312 Z M 216.058594 357.820312 C 216.652344 357.820312 217.246094 358.046875 217.699219 358.5 L 232.253906 373.039062 C 233.160156 373.945312 233.160156 375.417969 232.253906 376.324219 C 231.347656 377.230469 229.875 377.230469 228.96875 376.324219 L 214.414062 361.785156 C 213.507812 360.875 213.507812 359.40625 214.414062 358.5 C 214.867188 358.046875 215.460938 357.820312 216.058594 357.820312 Z M 207.054688 348.824219 C 207.648438 348.824219 208.242188 349.046875 208.699219 349.503906 C 209.605469 350.410156 209.605469 351.878906 208.699219 352.785156 L 186.640625 374.828125 C 185.730469 375.734375 184.261719 375.734375 183.351562 374.828125 C 182.445312 373.917969 182.445312 372.449219 183.351562 371.542969 L 205.410156 349.503906 C 205.863281 349.046875 206.460938 348.824219 207.054688 348.824219 " fill-opacity="1" fill-rule="nonzero"/><g clip-path="url(#1ff5850675)"><path fill="#a2caff" d="M 194.753906 360.152344 L 184.601562 350.007812 L 174.445312 360.152344 L 184.601562 370.304688 Z M 184.601562 344.402344 C 185.195312 344.402344 185.789062 344.628906 186.242188 345.082031 L 199.683594 358.511719 C 200.589844 359.417969 200.589844 360.886719 199.683594 361.792969 L 187.886719 373.585938 L 193.605469 379.300781 L 214.410156 358.511719 C 215.316406 357.605469 216.789062 357.605469 217.695312 358.511719 C 218.601562 359.417969 218.601562 360.886719 217.695312 361.792969 L 195.257812 384.214844 C 195.144531 384.332031 195.015625 384.433594 194.882812 384.519531 C 193.980469 385.117188 192.753906 385.015625 191.960938 384.222656 L 169.515625 361.792969 C 169.078125 361.359375 168.832031 360.769531 168.832031 360.152344 C 168.832031 359.539062 169.078125 358.949219 169.515625 358.511719 L 182.957031 345.082031 C 183.410156 344.628906 184.003906 344.402344 184.601562 344.402344 Z M 184.601562 326.40625 C 185.195312 326.40625 185.789062 326.632812 186.242188 327.085938 L 208.6875 349.511719 C 209.597656 350.417969 209.597656 351.886719 208.6875 352.796875 C 207.78125 353.703125 206.308594 353.703125 205.402344 352.796875 L 184.601562 332.011719 L 156.433594 360.152344 L 186.242188 389.941406 C 187.152344 390.847656 187.152344 392.316406 186.242188 393.226562 C 185.335938 394.132812 183.863281 394.132812 182.957031 393.226562 L 151.503906 361.792969 C 151.066406 361.359375 150.824219 360.769531 150.824219 360.152344 C 150.824219 359.539062 151.066406 358.949219 151.503906 358.511719 L 182.957031 327.085938 C 183.410156 326.632812 184.003906 326.40625 184.601562 326.40625 " fill-opacity="1" fill-rule="nonzero"/></g><g clip-path="url(#f0265ebfeb)"><path fill="#a2caff" d="M 207.035156 438.539062 C 207.628906 438.539062 208.226562 438.765625 208.679688 439.21875 C 209.585938 440.125 209.585938 441.597656 208.679688 442.503906 L 199.664062 451.511719 C 198.757812 452.417969 197.285156 452.417969 196.378906 451.511719 C 195.46875 450.605469 195.46875 449.136719 196.378906 448.230469 L 205.394531 439.21875 C 205.84375 438.765625 206.441406 438.539062 207.035156 438.539062 Z M 239.628906 449.871094 L 229.472656 439.722656 L 219.320312 449.871094 L 229.472656 460.015625 Z M 229.472656 434.117188 C 230.089844 434.117188 230.679688 434.363281 231.117188 434.796875 L 244.554688 448.230469 C 245.464844 449.136719 245.464844 450.605469 244.554688 451.511719 L 231.117188 464.945312 C 230.246094 465.8125 228.699219 465.8125 227.828125 464.945312 L 214.390625 451.511719 C 213.480469 450.605469 213.480469 449.136719 214.390625 448.230469 L 227.828125 434.796875 C 228.265625 434.363281 228.855469 434.117188 229.472656 434.117188 Z M 229.472656 416.117188 C 230.066406 416.117188 230.660156 416.347656 231.117188 416.800781 L 262.566406 448.230469 C 263.003906 448.664062 263.25 449.253906 263.25 449.871094 C 263.25 450.488281 263.003906 451.078125 262.566406 451.511719 L 231.117188 482.941406 C 230.207031 483.847656 228.738281 483.847656 227.828125 482.941406 L 205.382812 460.511719 C 204.472656 459.601562 204.472656 458.132812 205.382812 457.226562 C 206.289062 456.320312 207.761719 456.320312 208.667969 457.226562 L 229.472656 478.015625 L 257.640625 449.871094 L 227.828125 420.082031 C 226.921875 419.175781 226.921875 417.707031 227.828125 416.800781 C 228.285156 416.347656 228.878906 416.117188 229.472656 416.117188 " fill-opacity="1" fill-rule="nonzero"/></g><path fill="#a2caff" d="M 229.480469 434.109375 C 230.074219 434.109375 230.671875 434.335938 231.125 434.789062 C 232.03125 435.695312 232.03125 437.164062 231.125 438.070312 L 208.679688 460.5 C 207.769531 461.40625 206.300781 461.40625 205.394531 460.5 C 204.484375 459.59375 204.484375 458.121094 205.394531 457.214844 L 227.839844 434.785156 C 228.292969 434.335938 228.886719 434.109375 229.480469 434.109375 Z M 217.191406 427.429688 L 207.035156 417.28125 L 196.882812 427.429688 L 207.035156 437.578125 Z M 207.035156 411.679688 C 207.628906 411.679688 208.226562 411.90625 208.679688 412.355469 L 222.121094 425.789062 C 223.027344 426.695312 223.027344 428.164062 222.121094 429.070312 L 208.679688 442.503906 C 207.808594 443.375 206.265625 443.375 205.394531 442.503906 L 191.953125 429.070312 C 191.046875 428.164062 191.046875 426.695312 191.953125 425.789062 L 205.394531 412.355469 C 205.847656 411.90625 206.441406 411.679688 207.035156 411.679688 " fill-opacity="1" fill-rule="nonzero"/><path fill="#a2caff" d="M 162.09375 411.648438 C 162.691406 411.648438 163.28125 411.875 163.738281 412.328125 L 186.222656 434.796875 C 187.132812 435.707031 187.132812 437.175781 186.222656 438.082031 C 185.316406 438.988281 183.847656 438.988281 182.9375 438.082031 L 160.453125 415.613281 C 159.542969 414.707031 159.542969 413.234375 160.453125 412.328125 C 160.90625 411.875 161.5 411.648438 162.09375 411.648438 Z M 194.734375 405.011719 L 184.582031 394.863281 L 174.425781 405.011719 L 184.582031 415.160156 Z M 184.582031 389.257812 C 185.175781 389.257812 185.769531 389.484375 186.222656 389.9375 L 199.664062 403.371094 C 200.574219 404.277344 200.574219 405.746094 199.664062 406.652344 L 186.222656 420.082031 C 185.351562 420.957031 183.808594 420.957031 182.9375 420.085938 L 169.496094 406.652344 C 169.0625 406.21875 168.816406 405.628906 168.816406 405.011719 C 168.816406 404.394531 169.0625 403.804688 169.496094 403.371094 L 182.9375 389.9375 C 183.390625 389.484375 183.988281 389.257812 184.582031 389.257812 Z M 175.59375 380.242188 C 176.1875 380.242188 176.78125 380.46875 177.234375 380.921875 C 178.144531 381.828125 178.144531 383.300781 177.234375 384.207031 L 154.769531 406.652344 C 153.863281 407.558594 152.390625 407.558594 151.484375 406.652344 C 150.578125 405.746094 150.578125 404.277344 151.484375 403.371094 L 173.949219 380.921875 C 174.402344 380.46875 174.996094 380.242188 175.59375 380.242188 Z M 184.582031 371.261719 C 185.175781 371.261719 185.769531 371.488281 186.222656 371.941406 L 208.679688 394.378906 C 209.585938 395.285156 209.585938 396.757812 208.679688 397.664062 C 207.769531 398.570312 206.300781 398.570312 205.394531 397.664062 L 182.9375 375.222656 C 182.03125 374.316406 182.03125 372.847656 182.9375 371.941406 C 183.390625 371.488281 183.988281 371.261719 184.582031 371.261719 " fill-opacity="1" fill-rule="nonzero"/><g clip-path="url(#7dcad9bcd4)"><path fill="#a2caff" d="M 194.703125 449.820312 L 184.550781 439.671875 L 174.394531 449.820312 L 184.550781 459.964844 Z M 184.550781 434.066406 C 185.167969 434.066406 185.757812 434.3125 186.191406 434.746094 L 199.632812 448.175781 C 200.542969 449.085938 200.542969 450.554688 199.632812 451.460938 L 186.191406 464.890625 C 185.320312 465.765625 183.777344 465.765625 182.90625 464.890625 L 169.464844 451.460938 C 168.558594 450.554688 168.558594 449.085938 169.464844 448.175781 L 182.90625 434.746094 C 183.34375 434.3125 183.933594 434.066406 184.550781 434.066406 Z M 175.542969 425.070312 C 176.140625 425.070312 176.734375 425.296875 177.1875 425.75 C 178.09375 426.65625 178.09375 428.125 177.1875 429.03125 L 156.382812 449.820312 L 184.550781 477.964844 L 214.359375 448.175781 C 215.265625 447.269531 216.738281 447.269531 217.644531 448.175781 C 218.554688 449.085938 218.554688 450.554688 217.644531 451.460938 L 186.191406 482.890625 C 185.320312 483.761719 183.777344 483.761719 182.90625 482.890625 L 151.453125 451.460938 C 151.019531 451.027344 150.773438 450.433594 150.773438 449.820312 C 150.773438 449.203125 151.019531 448.613281 151.453125 448.175781 L 173.902344 425.75 C 174.355469 425.296875 174.949219 425.070312 175.542969 425.070312 Z M 184.550781 416.070312 C 185.144531 416.070312 185.738281 416.296875 186.191406 416.75 L 208.679688 439.21875 C 209.589844 440.125 209.589844 441.597656 208.679688 442.503906 C 207.773438 443.410156 206.300781 443.410156 205.394531 442.503906 L 182.90625 420.035156 C 182 419.125 182 417.65625 182.90625 416.75 C 183.359375 416.296875 183.957031 416.070312 184.550781 416.070312 " fill-opacity="1" fill-rule="nonzero"/></g><g clip-path="url(#cf55ad2234)"><path fill="#a2caff" d="M 149.8125 404.960938 L 139.660156 394.8125 L 129.503906 404.960938 L 139.660156 415.109375 Z M 139.660156 389.207031 C 140.253906 389.207031 140.847656 389.433594 141.300781 389.886719 L 154.742188 403.320312 C 155.179688 403.753906 155.425781 404.34375 155.425781 404.960938 C 155.425781 405.574219 155.179688 406.167969 154.742188 406.601562 L 141.300781 420.03125 C 140.394531 420.941406 138.925781 420.941406 138.015625 420.03125 L 124.574219 406.601562 C 123.667969 405.695312 123.667969 404.226562 124.574219 403.320312 L 138.015625 389.886719 C 138.46875 389.433594 139.0625 389.207031 139.660156 389.207031 Z M 139.660156 371.210938 C 140.253906 371.210938 140.847656 371.4375 141.300781 371.890625 L 163.789062 394.359375 C 164.695312 395.265625 164.695312 396.734375 163.789062 397.644531 C 162.878906 398.550781 161.410156 398.550781 160.503906 397.644531 L 139.660156 376.816406 L 111.492188 404.960938 L 139.660156 433.105469 L 171.273438 401.511719 C 172.183594 400.609375 173.652344 400.605469 174.558594 401.515625 C 175.46875 402.421875 175.46875 403.890625 174.558594 404.796875 L 141.300781 438.03125 C 140.863281 438.464844 140.277344 438.710938 139.660156 438.710938 C 139.042969 438.710938 138.449219 438.464844 138.015625 438.03125 L 106.5625 406.601562 C 105.65625 405.695312 105.65625 404.226562 106.5625 403.320312 L 138.015625 371.890625 C 138.46875 371.4375 139.0625 371.210938 139.660156 371.210938 " fill-opacity="1" fill-rule="nonzero"/></g><g fill="#222222" fill-opacity="1"><g transform="translate(307.681512, 435.568718)"><g><path d="M 18.28125 0 L 7.203125 0 L 7.203125 -62.375 L 51.625 -62.375 L 51.625 -52.625 L 18.28125 -52.625 L 18.28125 -37.328125 L 43.765625 -37.328125 L 43.765625 -28.140625 L 18.28125 -28.140625 Z M 18.28125 0 "/></g></g></g><g fill="#222222" fill-opacity="1"><g transform="translate(360.185397, 435.568718)"><g><path d="M 19.71875 1.109375 C 13.4375 1.109375 8.96875 -1.03125 6.3125 -5.3125 C 3.65625 -9.601562 2.328125 -15.21875 2.328125 -22.15625 C 2.328125 -29.175781 3.671875 -34.84375 6.359375 -39.15625 C 9.054688 -43.476562 13.507812 -45.640625 19.71875 -45.640625 C 23.257812 -45.640625 26.0625 -45.03125 28.125 -43.8125 C 30.195312 -42.59375 31.75 -41.242188 32.78125 -39.765625 C 33.820312 -38.296875 34.453125 -37.191406 34.671875 -36.453125 L 34.890625 -36.453125 L 34.890625 -45.53125 L 46.53125 -45.53125 L 46.53125 0 L 36.78125 0 L 34.890625 -7.421875 L 34.671875 -7.421875 C 34.453125 -6.753906 33.804688 -5.738281 32.734375 -4.375 C 31.660156 -3.007812 30.070312 -1.753906 27.96875 -0.609375 C 25.863281 0.535156 23.113281 1.109375 19.71875 1.109375 Z M 24.375 -8.421875 C 28.507812 -8.421875 31.296875 -9.726562 32.734375 -12.34375 C 34.171875 -14.96875 34.890625 -18.203125 34.890625 -22.046875 C 34.890625 -26.109375 34.148438 -29.394531 32.671875 -31.90625 C 31.203125 -34.414062 28.4375 -35.671875 24.375 -35.671875 C 21.488281 -35.671875 19.25 -35.039062 17.65625 -33.78125 C 16.070312 -32.53125 14.96875 -30.890625 14.34375 -28.859375 C 13.71875 -26.828125 13.40625 -24.554688 13.40625 -22.046875 C 13.40625 -19.535156 13.71875 -17.242188 14.34375 -15.171875 C 14.96875 -13.109375 16.070312 -11.46875 17.65625 -10.25 C 19.25 -9.03125 21.488281 -8.421875 24.375 -8.421875 Z M 24.375 -8.421875 "/></g></g></g><g fill="#222222" fill-opacity="1"><g transform="translate(410.363154, 435.568718)"><g><path d="M 4.09375 0 L 4.09375 -45.3125 L 13.734375 -45.3125 L 15.625 -35.671875 L 15.84375 -35.671875 C 15.914062 -35.890625 16.191406 -36.5 16.671875 -37.5 C 17.148438 -38.5 17.960938 -39.625 19.109375 -40.875 C 20.253906 -42.132812 21.804688 -43.222656 23.765625 -44.140625 C 25.722656 -45.066406 28.175781 -45.53125 31.125 -45.53125 C 35.1875 -45.53125 38.328125 -44.71875 40.546875 -43.09375 C 42.765625 -41.46875 44.351562 -39.414062 45.3125 -36.9375 C 46.269531 -34.46875 46.859375 -31.90625 47.078125 -29.25 C 47.304688 -26.59375 47.421875 -24.191406 47.421875 -22.046875 L 47.421875 0 L 36.34375 0 L 36.34375 -22.15625 C 36.34375 -24.59375 36.117188 -26.828125 35.671875 -28.859375 C 35.222656 -30.890625 34.28125 -32.515625 32.84375 -33.734375 C 31.40625 -34.953125 29.285156 -35.5625 26.484375 -35.5625 C 23.523438 -35.5625 21.269531 -34.894531 19.71875 -33.5625 C 18.164062 -32.238281 17.09375 -30.523438 16.5 -28.421875 C 15.914062 -26.316406 15.625 -24.082031 15.625 -21.71875 L 15.625 0 Z M 4.09375 0 "/></g></g></g><g fill="#222222" fill-opacity="1"><g transform="translate(461.980904, 435.568718)"><g><path d="M 19.046875 0 C 15.429688 0 12.71875 -0.882812 10.90625 -2.65625 C 9.101562 -4.425781 8.203125 -7.304688 8.203125 -11.296875 L 8.203125 -37.5625 L 1.328125 -37.5625 L 1.328125 -45.53125 C 3.472656 -45.53125 5.132812 -45.75 6.3125 -46.1875 C 7.5 -46.632812 8.347656 -47.671875 8.859375 -49.296875 C 9.378906 -50.921875 9.640625 -53.539062 9.640625 -57.15625 L 18.71875 -57.15625 L 18.71875 -45.53125 L 29.140625 -45.53125 L 29.140625 -37.5625 L 18.71875 -37.5625 L 18.71875 -8.859375 L 29.359375 -8.859375 L 29.359375 0 Z M 19.046875 0 "/></g></g></g><g fill="#222222" fill-opacity="1"><g transform="translate(495.765058, 435.568718)"><g><path d="M 19.71875 1.109375 C 13.4375 1.109375 8.96875 -1.03125 6.3125 -5.3125 C 3.65625 -9.601562 2.328125 -15.21875 2.328125 -22.15625 C 2.328125 -29.175781 3.671875 -34.84375 6.359375 -39.15625 C 9.054688 -43.476562 13.507812 -45.640625 19.71875 -45.640625 C 23.257812 -45.640625 26.0625 -45.03125 28.125 -43.8125 C 30.195312 -42.59375 31.75 -41.242188 32.78125 -39.765625 C 33.820312 -38.296875 34.453125 -37.191406 34.671875 -36.453125 L 34.890625 -36.453125 L 34.890625 -45.53125 L 46.53125 -45.53125 L 46.53125 0 L 36.78125 0 L 34.890625 -7.421875 L 34.671875 -7.421875 C 34.453125 -6.753906 33.804688 -5.738281 32.734375 -4.375 C 31.660156 -3.007812 30.070312 -1.753906 27.96875 -0.609375 C 25.863281 0.535156 23.113281 1.109375 19.71875 1.109375 Z M 24.375 -8.421875 C 28.507812 -8.421875 31.296875 -9.726562 32.734375 -12.34375 C 34.171875 -14.96875 34.890625 -18.203125 34.890625 -22.046875 C 34.890625 -26.109375 34.148438 -29.394531 32.671875 -31.90625 C 31.203125 -34.414062 28.4375 -35.671875 24.375 -35.671875 C 21.488281 -35.671875 19.25 -35.039062 17.65625 -33.78125 C 16.070312 -32.53125 14.96875 -30.890625 14.34375 -28.859375 C 13.71875 -26.828125 13.40625 -24.554688 13.40625 -22.046875 C 13.40625 -19.535156 13.71875 -17.242188 14.34375 -15.171875 C 14.96875 -13.109375 16.070312 -11.46875 17.65625 -10.25 C 19.25 -9.03125 21.488281 -8.421875 24.375 -8.421875 Z M 24.375 -8.421875 "/></g></g></g><g fill="#222222" fill-opacity="1"><g transform="translate(545.942815, 435.568718)"><g/></g></g><g fill="#222222" fill-opacity="1"><g transform="translate(570.090174, 435.568718)"><g><path d="M 30.578125 1.21875 C 27.179688 1.21875 23.835938 0.8125 20.546875 0 C 17.265625 -0.8125 14.289062 -2.066406 11.625 -3.765625 C 8.96875 -5.460938 6.863281 -7.695312 5.3125 -10.46875 C 3.757812 -13.238281 2.945312 -16.582031 2.875 -20.5 L 14.296875 -20.5 C 14.296875 -20.125 14.441406 -19.328125 14.734375 -18.109375 C 15.023438 -16.890625 15.707031 -15.578125 16.78125 -14.171875 C 17.851562 -12.773438 19.550781 -11.554688 21.875 -10.515625 C 24.207031 -9.484375 27.363281 -8.96875 31.34375 -8.96875 C 35.707031 -8.96875 38.941406 -9.78125 41.046875 -11.40625 C 43.148438 -13.03125 44.203125 -14.765625 44.203125 -16.609375 C 44.203125 -18.679688 43.476562 -20.328125 42.03125 -21.546875 C 40.59375 -22.765625 38.675781 -23.757812 36.28125 -24.53125 C 33.882812 -25.3125 31.265625 -26.03125 28.421875 -26.6875 C 25.578125 -27.351562 22.734375 -28.113281 19.890625 -28.96875 C 17.046875 -29.820312 14.457031 -30.96875 12.125 -32.40625 C 9.800781 -33.84375 7.972656 -35.707031 6.640625 -38 C 5.316406 -40.289062 4.726562 -43.207031 4.875 -46.75 C 5.238281 -51.988281 7.75 -56.085938 12.40625 -59.046875 C 17.0625 -62.003906 23.226562 -63.484375 30.90625 -63.484375 C 35.34375 -63.484375 39.460938 -62.6875 43.265625 -61.09375 C 47.066406 -59.507812 50.128906 -57.144531 52.453125 -54 C 54.773438 -50.863281 55.9375 -46.859375 55.9375 -41.984375 L 44.984375 -41.984375 C 44.984375 -44.273438 44.460938 -46.140625 43.421875 -47.578125 C 42.390625 -49.015625 41.078125 -50.117188 39.484375 -50.890625 C 37.898438 -51.671875 36.222656 -52.191406 34.453125 -52.453125 C 32.679688 -52.710938 31.09375 -52.84375 29.6875 -52.84375 C 26 -52.84375 22.953125 -52.210938 20.546875 -50.953125 C 18.148438 -49.703125 16.953125 -47.859375 16.953125 -45.421875 C 16.878906 -43.347656 17.578125 -41.679688 19.046875 -40.421875 C 20.523438 -39.171875 22.484375 -38.175781 24.921875 -37.4375 C 27.359375 -36.707031 30.015625 -36.046875 32.890625 -35.453125 C 35.773438 -34.859375 38.65625 -34.132812 41.53125 -33.28125 C 44.414062 -32.4375 47.039062 -31.332031 49.40625 -29.96875 C 51.769531 -28.601562 53.613281 -26.753906 54.9375 -24.421875 C 56.269531 -22.097656 56.828125 -19.09375 56.609375 -15.40625 C 56.316406 -10.15625 53.769531 -6.070312 48.96875 -3.15625 C 44.164062 -0.238281 38.035156 1.21875 30.578125 1.21875 Z M 30.578125 1.21875 "/></g></g></g><g fill="#222222" fill-opacity="1"><g transform="translate(631.566229, 435.568718)"><g><path d="M 25.375 1.109375 C 20.125 1.109375 15.851562 -0.015625 12.5625 -2.265625 C 9.28125 -4.523438 6.84375 -7.40625 5.25 -10.90625 C 3.664062 -14.414062 2.835938 -18.128906 2.765625 -22.046875 C 2.691406 -26.617188 3.5625 -30.695312 5.375 -34.28125 C 7.1875 -37.863281 9.769531 -40.671875 13.125 -42.703125 C 16.488281 -44.734375 20.457031 -45.75 25.03125 -45.75 C 29.09375 -45.75 32.726562 -44.863281 35.9375 -43.09375 C 39.15625 -41.320312 41.722656 -38.828125 43.640625 -35.609375 C 45.566406 -32.398438 46.566406 -28.617188 46.640625 -24.265625 C 46.640625 -24.117188 46.640625 -23.710938 46.640625 -23.046875 C 46.640625 -22.378906 46.640625 -21.820312 46.640625 -21.375 L 13.515625 -21.375 C 13.515625 -17.164062 14.546875 -13.9375 16.609375 -11.6875 C 18.679688 -9.4375 21.523438 -8.3125 25.140625 -8.3125 C 27.953125 -8.3125 30.296875 -9.007812 32.171875 -10.40625 C 34.054688 -11.8125 35.1875 -13.660156 35.5625 -15.953125 L 46.53125 -15.953125 C 46.007812 -11.148438 43.9375 -7.101562 40.3125 -3.8125 C 36.695312 -0.53125 31.71875 1.109375 25.375 1.109375 Z M 13.84375 -26.484375 L 35.34375 -26.484375 C 35.269531 -26.992188 35.101562 -27.800781 34.84375 -28.90625 C 34.582031 -30.019531 34.097656 -31.164062 33.390625 -32.34375 C 32.691406 -33.53125 31.640625 -34.53125 30.234375 -35.34375 C 28.835938 -36.15625 27.03125 -36.5625 24.8125 -36.5625 C 21.863281 -36.5625 19.628906 -35.953125 18.109375 -34.734375 C 16.597656 -33.515625 15.523438 -32.109375 14.890625 -30.515625 C 14.265625 -28.929688 13.914062 -27.585938 13.84375 -26.484375 Z M 13.84375 -26.484375 "/></g></g></g><g fill="#222222" fill-opacity="1"><g transform="translate(682.740886, 435.568718)"><g><path d="M 19.71875 1.109375 C 13.4375 1.109375 8.96875 -1.03125 6.3125 -5.3125 C 3.65625 -9.601562 2.328125 -15.21875 2.328125 -22.15625 C 2.328125 -29.175781 3.671875 -34.84375 6.359375 -39.15625 C 9.054688 -43.476562 13.507812 -45.640625 19.71875 -45.640625 C 23.257812 -45.640625 26.0625 -45.03125 28.125 -43.8125 C 30.195312 -42.59375 31.75 -41.242188 32.78125 -39.765625 C 33.820312 -38.296875 34.453125 -37.191406 34.671875 -36.453125 L 34.890625 -36.453125 L 34.890625 -45.53125 L 46.53125 -45.53125 L 46.53125 0 L 36.78125 0 L 34.890625 -7.421875 L 34.671875 -7.421875 C 34.453125 -6.753906 33.804688 -5.738281 32.734375 -4.375 C 31.660156 -3.007812 30.070312 -1.753906 27.96875 -0.609375 C 25.863281 0.535156 23.113281 1.109375 19.71875 1.109375 Z M 24.375 -8.421875 C 28.507812 -8.421875 31.296875 -9.726562 32.734375 -12.34375 C 34.171875 -14.96875 34.890625 -18.203125 34.890625 -22.046875 C 34.890625 -26.109375 34.148438 -29.394531 32.671875 -31.90625 C 31.203125 -34.414062 28.4375 -35.671875 24.375 -35.671875 C 21.488281 -35.671875 19.25 -35.039062 17.65625 -33.78125 C 16.070312 -32.53125 14.96875 -30.890625 14.34375 -28.859375 C 13.71875 -26.828125 13.40625 -24.554688 13.40625 -22.046875 C 13.40625 -19.535156 13.71875 -17.242188 14.34375 -15.171875 C 14.96875 -13.109375 16.070312 -11.46875 17.65625 -10.25 C 19.25 -9.03125 21.488281 -8.421875 24.375 -8.421875 Z M 24.375 -8.421875 "/></g></g></g></svg>